<svg width="36" height="36" viewBox="0 0 36 36" fill="none" xmlns="http://www.w3.org/2000/svg">
<path d="M22.2366 36H12.0794C10.3828 36 9.00266 35.2167 9.00266 34.2537V21.2503H3.0767C1.38011 21.2503 0 20.4667 0 19.504V13.932C0 12.9691 1.38011 12.1858 3.0767 12.1858H9.00266V9.39551C9.00266 6.62888 10.5333 4.27505 13.4285 2.58893C16.3368 0.895111 20.4012 0 25.1822 0L32.9286 0.00714108C34.6223 0.00878906 36 0.792114 36 1.75342V6.92688C36 7.88983 34.6204 8.67316 32.9243 8.67316L27.7087 8.67426C26.1181 8.67426 25.713 8.85526 25.6264 8.91074C25.4837 9.00275 25.3138 9.26285 25.3138 9.98108V12.1855H32.5323C33.0757 12.1855 33.6022 12.2616 34.0547 12.4049C35.0307 12.7145 35.6376 13.2998 35.6376 13.9323L35.6337 19.5043C35.6337 20.4667 34.2536 21.25 32.557 21.25H25.3138V34.2537C25.3138 35.2167 23.9332 36 22.2366 36ZM12.721 33.8895H21.595V20.3055C21.595 19.6625 22.5168 19.1396 23.6492 19.1396H31.9153L31.9187 14.2962H23.6487C22.5163 14.2962 21.595 13.7733 21.595 13.1303V9.98108C21.595 9.15656 21.7426 8.21887 22.8391 7.5141C24.164 6.66211 26.2521 6.56378 27.7077 6.56378L32.2816 6.56268V2.11707L25.1793 2.11047C17.4958 2.11047 12.721 4.9021 12.721 9.39551V13.1303C12.721 13.773 11.7997 14.2962 10.6673 14.2962H3.71836V19.1396H10.6673C11.7997 19.1396 12.721 19.6625 12.721 20.3055V33.8895Z" fill="url(#paint0_linear)"/>
<defs>
<linearGradient id="paint0_linear" x1="-1.26316" y1="-90.0008" x2="38.5288" y2="-90.0063" gradientUnits="userSpaceOnUse">
<stop stop-color="#BF0105"/>
<stop offset="1" stop-color="#0535A3"/>
</linearGradient>
</defs>
</svg>
