<svg width="36" height="36" viewBox="0 0 36 36" fill="none" xmlns="http://www.w3.org/2000/svg">
<path d="M35.9085 10.5841C35.8242 8.67131 35.5148 7.35626 35.0716 6.21675C34.6144 5.00719 33.911 3.92427 32.9894 3.02404C32.089 2.10979 30.9987 1.39939 29.8029 0.949407C28.6566 0.506296 27.3482 0.196969 25.435 0.112632C23.5075 0.0211529 22.8956 0 18.007 0C13.1184 0 12.5065 0.0211529 10.5862 0.10549C8.67296 0.189826 7.35766 0.499428 6.21821 0.942265C5.00814 1.39939 3.92502 2.10265 3.02461 3.02404C2.1102 3.92427 1.39993 5.01433 0.949588 6.20988C0.506392 7.35626 0.197007 8.66416 0.112654 10.577C0.0211569 12.5041 0 13.1159 0 18.0036C0 22.8913 0.0211569 23.503 0.10551 25.423C0.189863 27.3358 0.499523 28.6509 0.942719 29.7904C1.39993 31 2.1102 32.0829 3.02461 32.9831C3.92502 33.8974 5.01529 34.6078 6.21106 35.0577C7.35766 35.5008 8.66582 35.8102 10.5793 35.8945C12.4993 35.9791 13.1115 36 18.0001 36C22.8888 36 23.5007 35.9791 25.421 35.8945C27.3342 35.8102 28.6495 35.5008 29.7889 35.0577C32.2088 34.1223 34.122 32.2095 35.0576 29.7904C35.5005 28.644 35.8101 27.3358 35.8945 25.423C35.9788 23.503 36 22.8913 36 18.0036C36 13.1159 35.9929 12.5041 35.9085 10.5841ZM32.666 25.2824C32.5885 27.0405 32.2931 27.9899 32.047 28.6229C31.4419 30.1912 30.197 31.4359 28.6283 32.0408C27.9953 32.287 27.0388 32.5823 25.2872 32.6595C23.388 32.7441 22.8184 32.765 18.0142 32.765C13.2099 32.765 12.6332 32.7441 10.7408 32.6595C8.98235 32.5823 8.03276 32.287 7.3997 32.0408C6.61909 31.7524 5.90855 31.2953 5.33182 30.6975C4.73393 30.1137 4.27672 29.4105 3.98822 28.63C3.74203 27.9971 3.44665 27.0405 3.36944 25.2895C3.28482 23.3907 3.26393 22.8209 3.26393 18.0176C3.26393 13.2142 3.28482 12.6376 3.36944 10.7459C3.44665 8.98778 3.74203 8.03837 3.98822 7.40543C4.27672 6.6247 4.73393 5.91456 5.33896 5.33767C5.92256 4.73989 6.62596 4.28277 7.40684 3.9946C8.0399 3.74845 8.99663 3.45314 10.748 3.37567C12.6472 3.29133 13.217 3.27018 18.021 3.27018C22.8324 3.27018 23.402 3.29133 25.2943 3.37567C27.0528 3.45314 28.0024 3.74845 28.6355 3.9946C29.4161 4.28277 30.1266 4.73989 30.7034 5.33767C31.3012 5.92143 31.7584 6.6247 32.047 7.40543C32.2931 8.03837 32.5885 8.99464 32.666 10.7459C32.7504 12.6448 32.7715 13.2142 32.7715 18.0176C32.7715 22.8209 32.7504 23.3835 32.666 25.2824Z" fill="url(#paint0_linear)"/>
<path d="M18.007 8.75562C12.9005 8.75562 8.75732 12.8977 8.75732 18.0035C8.75732 23.1094 12.9005 27.2515 18.007 27.2515C23.1138 27.2515 27.2567 23.1094 27.2567 18.0035C27.2567 12.8977 23.1138 8.75562 18.007 8.75562ZM18.007 24.0024C14.6942 24.0024 12.007 21.316 12.007 18.0035C12.007 14.6911 14.6942 12.0046 18.007 12.0046C21.3201 12.0046 24.0071 14.6911 24.0071 18.0035C24.0071 21.316 21.3201 24.0024 18.007 24.0024Z" fill="url(#paint1_linear)"/>
<path d="M29.782 8.39005C29.782 9.5823 28.8151 10.549 27.6224 10.549C26.4299 10.549 25.463 9.5823 25.463 8.39005C25.463 7.19752 26.4299 6.23108 27.6224 6.23108C28.8151 6.23108 29.782 7.19752 29.782 8.39005Z" fill="url(#paint2_linear)"/>
<defs>
<linearGradient id="paint0_linear" x1="-1.26316" y1="-90.0008" x2="38.5288" y2="-90.0063" gradientUnits="userSpaceOnUse">
<stop stop-color="#BF0105"/>
<stop offset="1" stop-color="#0535A3"/>
</linearGradient>
<linearGradient id="paint1_linear" x1="8.10822" y1="-37.4844" x2="28.5562" y2="-37.4873" gradientUnits="userSpaceOnUse">
<stop stop-color="#BF0105"/>
<stop offset="1" stop-color="#0535A3"/>
</linearGradient>
<linearGradient id="paint2_linear" x1="25.3115" y1="-4.56385" x2="30.0854" y2="-4.56451" gradientUnits="userSpaceOnUse">
<stop stop-color="#BF0105"/>
<stop offset="1" stop-color="#0535A3"/>
</linearGradient>
</defs>
</svg>
