<svg width="36" height="36" viewBox="0 0 36 36" fill="none" xmlns="http://www.w3.org/2000/svg">
<path d="M4.85999 0C3.54002 0 2.34 0.488159 1.44 1.40341C0.480022 2.37966 0 3.59995 0 4.88131C0 6.22365 0.539999 7.44402 1.44 8.35927C2.34 9.27452 3.59999 9.82368 4.80001 9.76268C4.80001 9.76268 4.85999 9.76268 4.92004 9.76268C6.12006 9.76268 7.26003 9.27452 8.16003 8.35927C9.06003 7.44402 9.60003 6.22365 9.60003 4.88131C9.66 3.59995 9.12 2.37959 8.22001 1.46433C7.32001 0.488088 6.11999 0 4.85999 0ZM7.32001 7.50508C6.65999 8.17629 5.75999 8.60338 4.80001 8.54239C3.90002 8.54239 2.94004 8.17629 2.28002 7.50508C1.56002 6.83387 1.20002 5.85762 1.20002 4.88138C1.20002 3.90513 1.56002 2.98988 2.28002 2.25767C2.94004 1.58646 3.84004 1.22036 4.85999 1.22036C5.75999 1.22036 6.65999 1.58646 7.32001 2.25767C8.04001 2.98988 8.40001 3.90513 8.40001 4.88138C8.40001 5.85762 8.04001 6.83387 7.32001 7.50508Z" fill="url(#paint0_linear)"/>
<path d="M7.19999 10.983H2.34C1.38002 10.983 0.599976 11.7762 0.599976 12.8135V34.1695C0.599976 35.1457 1.44 36 2.39997 36H7.19999C8.15996 36 8.99998 35.1457 8.99998 34.2305V12.8135C8.99998 11.8372 8.15996 10.983 7.19999 10.983ZM7.79996 34.2305C7.79996 34.5356 7.49994 34.7796 7.19999 34.7796H2.39997C2.09995 34.7796 1.8 34.4745 1.8 34.1695V12.8135C1.8 12.5084 2.03997 12.2034 2.34 12.2034H7.19999C7.50001 12.2034 7.79996 12.5085 7.79996 12.8135V34.2305Z" fill="url(#paint1_linear)"/>
<path d="M27.5999 10.3728H26.3399C23.9999 10.3728 21.7799 11.4101 20.3399 13.0576V12.2033C20.3399 11.5932 19.74 10.9829 19.1399 10.9829H13.14C12.6 10.9829 11.9399 11.4711 11.9399 12.1422V34.9015C11.9399 35.5727 12.6 35.9998 13.14 35.9998H19.74C20.28 35.9998 20.94 35.5727 20.94 34.9015V21.7219C20.94 19.7083 22.38 18.1219 24.24 18.1219C25.1999 18.1219 26.0999 18.488 26.76 19.1592C27.3599 19.7083 27.6 20.5626 27.6 21.6609V34.7795C27.6 35.3897 28.2 35.9999 28.8 35.9999H34.8C35.3999 35.9999 36 35.3898 36 34.7795V19.0372C35.9999 14.1559 32.3399 10.3728 27.5999 10.3728ZM34.7999 34.7185L34.7399 34.7795H28.8599L28.7999 21.661C28.7999 20.1966 28.4399 19.0982 27.66 18.305C26.76 17.3898 25.5599 16.9016 24.2999 16.9016C21.7799 16.9626 19.8 19.0373 19.8 21.7219V34.7795H13.1999V12.2033H19.1399L19.1999 12.2643V16.1084L20.8199 14.4609L20.8799 14.3999C22.0799 12.6915 24.1798 11.5932 26.3999 11.5932H27.6599C31.6799 11.5932 34.7999 14.8881 34.7999 19.0373V34.7185Z" fill="url(#paint2_linear)"/>
<defs>
<linearGradient id="paint0_linear" x1="-0.337002" y1="-24.4184" x2="10.2792" y2="-24.4199" gradientUnits="userSpaceOnUse">
<stop stop-color="#BF0105"/>
<stop offset="1" stop-color="#0535A3"/>
</linearGradient>
<linearGradient id="paint1_linear" x1="0.305239" y1="-51.5599" x2="9.59004" y2="-51.5603" gradientUnits="userSpaceOnUse">
<stop stop-color="#BF0105"/>
<stop offset="1" stop-color="#0535A3"/>
</linearGradient>
<linearGradient id="paint2_linear" x1="11.0957" y1="-53.6955" x2="37.6901" y2="-53.699" gradientUnits="userSpaceOnUse">
<stop stop-color="#BF0105"/>
<stop offset="1" stop-color="#0535A3"/>
</linearGradient>
</defs>
</svg>
