<svg width="84" height="83" viewBox="0 0 84 83" fill="none" xmlns="http://www.w3.org/2000/svg">
<path d="M42 0C18.8411 0 0 18.5299 0 41.3063C2.30705 96.1047 81.7015 96.0887 84 41.3059C84 18.5299 65.1589 0 42 0ZM42 31.1088C40.4501 31.1088 39.189 29.8686 39.189 28.3443C39.3435 24.6768 44.657 24.6777 44.811 28.3443C44.811 29.8686 43.5499 31.1088 42 31.1088ZM55.0047 75.4548V55.2705L62.2804 48.1131C67.3121 50.6504 73.5113 46.8921 73.4564 41.3061C73.4564 37.1127 69.9874 33.7011 65.7236 33.7011C60.0456 33.6477 56.2239 39.7408 58.801 44.6894L50.8036 52.5569C50.3423 53.0108 50.083 53.6263 50.083 54.268V76.8966C48.2557 77.2977 46.3782 77.5653 44.4611 77.6895V35.5521C52.6452 32.7117 50.7846 20.9087 42 20.7391C33.2141 20.9095 31.3563 32.7133 39.5391 35.5521V77.6897C37.622 77.5654 35.7445 77.2979 33.9171 76.8968V54.2682C33.9171 53.6263 33.6579 53.011 33.1966 52.5571L25.1992 44.6895C27.7758 39.741 23.9548 33.6472 18.2764 33.7012C14.0126 33.7012 10.5436 37.1129 10.5436 41.3063C10.4892 46.892 16.6878 50.6508 21.7196 48.1131L28.9953 55.2705V75.4548C-9.08758 60.8388 0.590623 5.57441 42.0005 4.84058C83.4159 5.57764 93.0823 60.8461 55.0047 75.4548ZM62.9126 41.3063C62.9126 39.782 64.1735 38.5417 65.7234 38.5417C69.4526 38.6936 69.4516 43.9194 65.7234 44.0709C64.1734 44.0709 62.9126 42.8306 62.9126 41.3063ZM21.0874 41.3063C21.0874 42.8306 19.8265 44.0709 18.2766 44.0709C14.5474 43.9189 14.5484 38.6932 18.2766 38.5417C19.8266 38.5417 21.0874 39.782 21.0874 41.3063Z" fill="url(#paint0_linear)"/>
<defs>
<linearGradient id="paint0_linear" x1="-2.94737" y1="-205.999" x2="89.9006" y2="-206.013" gradientUnits="userSpaceOnUse">
<stop stop-color="#BF0105"/>
<stop offset="1" stop-color="#0535A3"/>
</linearGradient>
</defs>
</svg>
