<svg width="84" height="83" viewBox="0 0 84 83" fill="none" xmlns="http://www.w3.org/2000/svg">
<path d="M30.338 76.0818C30.2261 75.9379 30.0849 75.8184 29.9235 75.7309C29.762 75.6434 29.5837 75.5899 29.4 75.5736V61.7992C29.3967 60.7075 28.9531 59.6615 28.1662 58.8895C27.3792 58.1176 26.3129 57.6825 25.2 57.6792H5.6C4.48711 57.6825 3.42076 58.1176 2.63382 58.8895C1.84689 59.6615 1.40332 60.7075 1.4 61.7992V75.5736C1.21628 75.5899 1.03801 75.6434 0.876527 75.7309C0.715044 75.8184 0.573878 75.9379 0.462001 76.0818C0.3307 76.2519 0.242015 76.4499 0.203104 76.6598C0.164193 76.8697 0.176147 77.0857 0.238001 77.2903L0.868 79.4327C1.12666 80.286 1.6583 81.0352 2.38437 81.5693C3.11044 82.1035 3.99242 82.3944 4.9 82.399H25.9C26.8076 82.3944 27.6895 82.1035 28.4156 81.5693C29.1417 81.0352 29.6733 80.286 29.932 79.4327L30.562 77.2903C30.6238 77.0857 30.6358 76.8697 30.5969 76.6598C30.558 76.4499 30.4693 76.2519 30.338 76.0818ZM4.9 79.6524C4.59753 79.6506 4.30364 79.5536 4.06166 79.3756C3.81968 79.1975 3.64242 78.9479 3.556 78.6636L3.444 78.2791H11.2C11.2 78.6433 11.3475 78.9926 11.61 79.2502C11.8726 79.5077 12.2287 79.6524 12.6 79.6524H4.9ZM16.8 76.9057H14C14 76.5415 13.8525 76.1922 13.5899 75.9347C13.3274 75.6771 12.9713 75.5324 12.6 75.5324H4.2V61.7992C4.2 61.4349 4.3475 61.0856 4.61005 60.8281C4.8726 60.5705 5.2287 60.4258 5.6 60.4258H25.2C25.5713 60.4258 25.9274 60.5705 26.1899 60.8281C26.4525 61.0856 26.6 61.4349 26.6 61.7992V75.5324H18.2C17.8287 75.5324 17.4726 75.6771 17.21 75.9347C16.9475 76.1922 16.8 76.5415 16.8 76.9057ZM27.244 78.6636C27.1576 78.9479 26.9803 79.1975 26.7383 79.3756C26.4963 79.5536 26.2025 79.6506 25.9 79.6524H18.2C18.5713 79.6524 18.9274 79.5077 19.1899 79.2502C19.4525 78.9926 19.6 78.6433 19.6 78.2791H27.356L27.244 78.6636Z" fill="url(#paint0_linear)"/>
<path d="M79.8 53.5593H60.2C59.0871 53.5626 58.0208 53.9977 57.2338 54.7696C56.4469 55.5416 56.0033 56.5876 56 57.6793V71.4125C56.0033 72.5042 56.4469 73.5502 57.2338 74.3221C58.0208 75.0941 59.0871 75.5292 60.2 75.5324H65.226L63.224 80.5176C63.1394 80.726 63.1081 80.9517 63.1329 81.1747C63.1577 81.3977 63.2379 81.6114 63.3663 81.7971C63.4948 81.9827 63.6677 82.1346 63.8698 82.2396C64.072 82.3445 64.2973 82.3993 64.526 82.399H75.474C75.7027 82.3993 75.928 82.3445 76.1302 82.2396C76.3323 82.1346 76.5052 81.9827 76.6337 81.7971C76.7621 81.6114 76.8423 81.3977 76.8671 81.1747C76.8919 80.9517 76.8606 80.726 76.776 80.5176L74.774 75.5324H79.8C80.9129 75.5292 81.9792 75.0941 82.7662 74.3221C83.5531 73.5502 83.9967 72.5042 84 71.4125V57.6793C83.9967 56.5876 83.5531 55.5416 82.7662 54.7696C81.9792 53.9977 80.9129 53.5626 79.8 53.5593ZM66.584 79.6524L68.25 75.5324H71.75L73.416 79.6524H66.584ZM81.2 71.4125C81.2 71.7767 81.0525 72.126 80.7899 72.3836C80.5274 72.6411 80.1713 72.7858 79.8 72.7858H60.2C59.8287 72.7858 59.4726 72.6411 59.21 72.3836C58.9475 72.126 58.8 71.7767 58.8 71.4125V70.0392H81.2V71.4125ZM81.2 67.2925H58.8V57.6793C58.8 57.3151 58.9475 56.9657 59.21 56.7082C59.4726 56.4507 59.8287 56.306 60.2 56.306H79.8C80.1713 56.306 80.5274 56.4507 80.7899 56.7082C81.0525 56.9657 81.2 57.3151 81.2 57.6793V67.2925Z" fill="url(#paint1_linear)"/>
<path d="M22.4 35.7063H15.4V31.5864H12.6V37.0796C12.6 37.4438 12.7475 37.7931 13.01 38.0507C13.2726 38.3082 13.6287 38.4529 14 38.4529H22.4V35.7063Z" fill="url(#paint2_linear)"/>
<path d="M12.6 45.3196V54.9327H15.4V46.6929H19.6V43.9463H14C13.6287 43.9463 13.2726 44.091 13.01 44.3485C12.7475 44.6061 12.6 44.9554 12.6 45.3196Z" fill="url(#paint3_linear)"/>
<path d="M71.4 27.4664H68.6V35.7063H58.8V38.4529H70C70.3713 38.4529 70.7274 38.3082 70.9899 38.0506C71.2525 37.7931 71.4 37.4438 71.4 37.0796V27.4664Z" fill="url(#paint4_linear)"/>
<path d="M71.4 50.8127V45.3196C71.4 44.9554 71.2525 44.6061 70.9899 44.3485C70.7274 44.091 70.3713 43.9463 70 43.9463H64.4V46.6929H68.6V50.8127H71.4Z" fill="url(#paint5_linear)"/>
<path d="M83.538 18.4024C83.4261 18.2585 83.285 18.139 83.1235 18.0515C82.962 17.9641 82.7837 17.9105 82.6 17.8942V4.11993C82.5967 3.02826 82.1531 1.98223 81.3662 1.2103C80.5792 0.438371 79.5129 0.00326037 78.4 0H58.8C57.6871 0.00326037 56.6208 0.438371 55.8338 1.2103C55.0469 1.98223 54.6033 3.02826 54.6 4.11993V17.8942C54.4163 17.9105 54.238 17.9641 54.0765 18.0515C53.9151 18.139 53.7739 18.2585 53.662 18.4024C53.5307 18.5725 53.442 18.7705 53.4031 18.9804C53.3642 19.1904 53.3762 19.4063 53.438 19.6109L54.068 21.7533C54.3267 22.6066 54.8583 23.3557 55.5844 23.8899C56.3105 24.4241 57.1924 24.715 58.1 24.7196H79.1C80.0076 24.715 80.8896 24.4241 81.6156 23.8899C82.3417 23.3557 82.8733 22.6066 83.132 21.7533L83.762 19.6109C83.8239 19.4063 83.8358 19.1904 83.7969 18.9804C83.758 18.7705 83.6693 18.5725 83.538 18.4024ZM58.1 21.973C57.7975 21.9712 57.5037 21.8742 57.2617 21.6961C57.0197 21.5181 56.8424 21.2685 56.756 20.9842L56.644 20.5997H64.4C64.4 20.9639 64.5475 21.3132 64.8101 21.5707C65.0726 21.8283 65.4287 21.973 65.8 21.973H58.1ZM70 19.2264H67.2C67.2 18.8621 67.0525 18.5128 66.79 18.2553C66.5274 17.9977 66.1713 17.853 65.8 17.853H57.4V4.11993C57.4 3.75571 57.5475 3.4064 57.8101 3.14886C58.0726 2.89131 58.4287 2.74662 58.8 2.74662H78.4C78.7713 2.74662 79.1274 2.89131 79.3899 3.14886C79.6525 3.4064 79.8 3.75571 79.8 4.11993V17.853H71.4C71.0287 17.853 70.6726 17.9977 70.4101 18.2553C70.1475 18.5128 70 18.8621 70 19.2264ZM80.444 20.9842C80.3576 21.2685 80.1803 21.5181 79.9383 21.6961C79.6964 21.8742 79.4025 21.9712 79.1 21.973H71.4C71.7713 21.973 72.1274 21.8283 72.39 21.5707C72.6525 21.3132 72.8 20.9639 72.8 20.5997H80.556L80.444 20.9842Z" fill="url(#paint6_linear)"/>
<path d="M23.8 0H4.2C3.08711 0.00326037 2.02076 0.438372 1.23382 1.21031C0.44689 1.98224 0.00332373 3.02827 0 4.11994V17.8531C0.00332373 18.9448 0.44689 19.9908 1.23382 20.7627C2.02076 21.5347 3.08711 21.9698 4.2 21.973H9.226L7.224 26.9582C7.13937 27.1666 7.1081 27.3922 7.13291 27.6152C7.15771 27.8383 7.23785 28.052 7.36632 28.2376C7.49478 28.4232 7.66765 28.5752 7.86982 28.6801C8.07198 28.7851 8.29728 28.8398 8.526 28.8396H19.474C19.7027 28.8398 19.928 28.7851 20.1302 28.6801C20.3323 28.5752 20.5052 28.4232 20.6337 28.2376C20.7621 28.052 20.8423 27.8383 20.8671 27.6152C20.8919 27.3922 20.8606 27.1666 20.776 26.9582L18.774 21.973H23.8C24.9129 21.9698 25.9792 21.5347 26.7662 20.7627C27.5531 19.9908 27.9967 18.9448 28 17.8531V4.11994C27.9967 3.02827 27.5531 1.98224 26.7662 1.21031C25.9792 0.438372 24.9129 0.00326037 23.8 0ZM10.584 26.093L12.25 21.973H15.75L17.416 26.093H10.584ZM25.2 17.8531C25.2 18.2173 25.0525 18.5666 24.7899 18.8242C24.5274 19.0817 24.1713 19.2264 23.8 19.2264H4.2C3.8287 19.2264 3.4726 19.0817 3.21005 18.8242C2.9475 18.5666 2.8 18.2173 2.8 17.8531V16.4798H25.2V17.8531ZM25.2 13.7331H2.8V4.11994C2.8 3.75572 2.9475 3.40641 3.21005 3.14886C3.4726 2.89132 3.8287 2.74663 4.2 2.74663H23.8C24.1713 2.74663 24.5274 2.89132 24.7899 3.14886C25.0525 3.40641 25.2 3.75572 25.2 4.11994V13.7331Z" fill="url(#paint7_linear)"/>
<path d="M56 41.1995H55.902C55.9695 40.7448 56.0022 40.2857 56 39.8262C55.9971 37.2775 54.9636 34.834 53.1264 33.0318C51.2892 31.2296 48.7982 30.2158 46.2 30.2129C44.7584 30.2197 43.3381 30.5544 42.0506 31.1906C40.7631 31.8269 39.6436 32.7473 38.78 33.8797C37.6076 33.2955 36.3149 32.9808 35 32.9595C32.7722 32.9595 30.6356 33.8277 29.0603 35.373C27.485 36.9183 26.6 39.0141 26.6 41.1995V41.3781C25.284 41.7154 24.1382 42.5111 23.3765 43.6166C22.6148 44.722 22.2892 46.0617 22.4607 47.3853C22.6322 48.709 23.2889 49.9261 24.3082 50.8096C25.3276 51.693 26.6398 52.1823 28 52.1862H56C57.4852 52.1862 58.9096 51.6074 59.9598 50.5772C61.01 49.547 61.6 48.1498 61.6 46.6928C61.6 45.2359 61.01 43.8387 59.9598 42.8085C58.9096 41.7783 57.4852 41.1995 56 41.1995ZM56 49.4395H28C27.2574 49.4395 26.5452 49.1501 26.0201 48.635C25.495 48.1199 25.2 47.4213 25.2 46.6928C25.2 45.9644 25.495 45.2658 26.0201 44.7507C26.5452 44.2356 27.2574 43.9462 28 43.9462C28.3713 43.9462 28.7274 43.8015 28.99 43.5439C29.2525 43.2864 29.4 42.9371 29.4 42.5729V41.1995C29.4 39.7426 29.99 38.3454 31.0402 37.3152C32.0904 36.285 33.5148 35.7062 35 35.7062C36.2221 35.7463 37.4051 36.1379 38.402 36.8323C38.5594 36.9396 38.7373 37.0143 38.9251 37.0521C39.1128 37.0899 39.3063 37.0899 39.494 37.0521C39.8698 36.9662 40.1965 36.7394 40.404 36.4203C40.9738 35.3938 41.8098 34.5331 42.8276 33.9254C43.8454 33.3176 45.0088 32.9845 46.2 32.9595C48.0566 32.9595 49.837 33.683 51.1498 34.9707C52.4625 36.2585 53.2 38.005 53.2 39.8262C53.1961 40.6075 53.0588 41.3827 52.794 42.1197C52.717 42.3262 52.6922 42.548 52.7218 42.766C52.7514 42.984 52.8345 43.1918 52.9639 43.3714C53.0933 43.551 53.2652 43.6971 53.4648 43.7972C53.6644 43.8973 53.8858 43.9485 54.11 43.9462H56C56.7426 43.9462 57.4548 44.2356 57.9799 44.7507C58.505 45.2658 58.8 45.9644 58.8 46.6928C58.8 47.4213 58.505 48.1199 57.9799 48.635C57.4548 49.1501 56.7426 49.4395 56 49.4395Z" fill="url(#paint8_linear)"/>
<defs>
<linearGradient id="paint0_linear" x1="-0.887293" y1="-4.12095" x2="32.7574" y2="-4.12672" gradientUnits="userSpaceOnUse">
<stop stop-color="#BF0105"/>
<stop offset="1" stop-color="#0535A3"/>
</linearGradient>
<linearGradient id="paint1_linear" x1="55.0175" y1="-18.5406" x2="85.9669" y2="-18.5448" gradientUnits="userSpaceOnUse">
<stop stop-color="#BF0105"/>
<stop offset="1" stop-color="#0535A3"/>
</linearGradient>
<linearGradient id="paint2_linear" x1="12.2561" y1="14.4201" x2="23.0884" y2="14.418" gradientUnits="userSpaceOnUse">
<stop stop-color="#BF0105"/>
<stop offset="1" stop-color="#0535A3"/>
</linearGradient>
<linearGradient id="paint3_linear" x1="12.3544" y1="16.4799" x2="20.0917" y2="16.4792" gradientUnits="userSpaceOnUse">
<stop stop-color="#BF0105"/>
<stop offset="1" stop-color="#0535A3"/>
</linearGradient>
<linearGradient id="paint4_linear" x1="58.3579" y1="6.96972e-05" x2="72.285" y2="-0.00215418" gradientUnits="userSpaceOnUse">
<stop stop-color="#BF0105"/>
<stop offset="1" stop-color="#0535A3"/>
</linearGradient>
<linearGradient id="paint5_linear" x1="64.1543" y1="26.78" x2="71.8917" y2="26.7789" gradientUnits="userSpaceOnUse">
<stop stop-color="#BF0105"/>
<stop offset="1" stop-color="#0535A3"/>
</linearGradient>
<linearGradient id="paint6_linear" x1="52.3127" y1="-61.7995" x2="85.9574" y2="-61.8053" gradientUnits="userSpaceOnUse">
<stop stop-color="#BF0105"/>
<stop offset="1" stop-color="#0535A3"/>
</linearGradient>
<linearGradient id="paint7_linear" x1="-0.982455" y1="-72.0996" x2="29.9669" y2="-72.1038" gradientUnits="userSpaceOnUse">
<stop stop-color="#BF0105"/>
<stop offset="1" stop-color="#0535A3"/>
</linearGradient>
<linearGradient id="paint8_linear" x1="21.0411" y1="-24.7207" x2="64.3525" y2="-24.7315" gradientUnits="userSpaceOnUse">
<stop stop-color="#BF0105"/>
<stop offset="1" stop-color="#0535A3"/>
</linearGradient>
</defs>
</svg>
