<svg width="84" height="83" viewBox="0 0 84 83" fill="none" xmlns="http://www.w3.org/2000/svg">
<path d="M83.4976 20.7603C82.8271 16.6619 81.5356 13.0467 79.621 9.91399C77.7387 6.78016 75.3872 4.34506 72.5637 2.6069C69.7396 0.869194 66.717 0 63.4965 0H2.44085L9.76154 21.0505L0 82.399H15.981L25.7425 21.0505H39.428L29.6664 82.399H45.6476L55.4091 21.0505H63.496C65.2819 21.0505 66.6058 21.7576 67.4672 23.1742C68.3618 24.5473 68.6005 26.4356 68.1863 28.8392L59.6694 82.3975H75.6503L83.4975 33.2805C84.1675 29.0322 84.1675 24.8578 83.4976 20.7603Z" fill="url(#paint0_linear)"/>
<defs>
<linearGradient id="paint0_linear" x1="-2.94737" y1="-205.999" x2="89.9006" y2="-206.013" gradientUnits="userSpaceOnUse">
<stop stop-color="#BF0105"/>
<stop offset="1" stop-color="#0535A3"/>
</linearGradient>
</defs>
</svg>
