<svg width="84" height="83" viewBox="0 0 84 83" fill="none" xmlns="http://www.w3.org/2000/svg">
<path d="M74.047 74.9851H67.6141L62.6943 59.6301C62.4848 58.9764 61.4653 58.5524 60.4181 58.683C59.3704 58.8138 58.6911 59.4498 58.9005 60.1035L63.6685 74.9849H59.5739L43.8858 30.9302C42.9888 29.5212 40.6244 29.6286 40.1091 30.9302L24.4259 74.9849H20.3275L31.1058 41.6361C31.3171 40.9826 30.6392 40.3458 29.5921 40.2141C28.5449 40.0815 27.5246 40.5051 27.3133 41.1588L16.3811 74.9849H9.95312C8.88481 74.9849 8.01871 75.5253 8.01871 76.1922V81.1918C8.01871 81.8587 8.88481 82.399 9.95312 82.399H37.7803C38.8486 82.399 39.7147 81.8587 39.7147 81.1918C39.7147 80.5249 38.8486 79.9845 37.7803 79.9845H11.8875V77.3994H72.1123V79.9845H46.2118C45.1432 79.9845 44.2774 80.5249 44.2774 81.1918C44.2774 81.8587 45.1432 82.399 46.2118 82.399H74.0467C75.1153 82.399 75.9811 81.8587 75.9811 81.1918V76.1922C75.9814 75.5256 75.1153 74.9851 74.047 74.9851ZM53.138 68.0416L55.1931 73.8131L45.9454 70.5667L53.138 68.0416ZM41.9997 69.1816L33.0776 66.0496L41.9989 61.8976L50.9209 66.0498L41.9997 69.1816ZM45.2348 60.3915L49.6775 58.3239L51.4427 63.2807L45.2348 60.3915ZM48.7575 55.7399L41.9989 58.8855L35.2403 55.74L36.4298 52.3988H47.5677L48.7575 55.7399ZM34.3206 58.324L38.763 60.3915L32.5561 63.2804L34.3206 58.324ZM30.861 68.0418L38.054 70.5667L28.8067 73.8129L30.861 68.0418ZM41.9997 71.9518L50.6406 74.9851H33.3593L41.9997 71.9518ZM41.9979 36.7578L46.7078 49.9843H37.2892L41.9979 36.7578Z" fill="url(#paint0_linear)"/>
<path d="M40.0656 22.2751V24.9839H34.1256C33.2046 24.9839 32.4115 25.3892 32.2294 25.9526L28.9821 36.0019C28.7709 36.6556 29.4487 37.2923 30.4961 37.4239C31.5425 37.5563 32.5636 37.1327 32.7746 36.4792L35.709 27.3986H48.4251L57.2499 54.9435C57.7987 55.6915 58.5575 56.0072 59.526 55.8906C60.5737 55.7598 61.2531 55.1238 61.0436 54.4701L51.9078 25.9547C51.727 25.3903 50.9331 24.9842 50.011 24.9842H43.9344V22.2754C48.4957 21.7119 51.946 19.1966 51.946 16.187C51.946 12.7642 47.4842 9.97961 42 9.97961C36.5158 9.97961 32.054 12.7642 32.054 16.187C32.054 19.1963 35.5045 21.7116 40.0656 22.2751ZM42 12.394C45.3509 12.394 48.0771 14.0954 48.0771 16.1868C48.0771 18.2783 45.3509 19.9796 42 19.9796C38.649 19.9796 35.9228 18.2783 35.9228 16.1868C35.9228 14.0954 38.649 12.394 42 12.394Z" fill="url(#paint1_linear)"/>
<path d="M56.4021 22.8798C58.8777 21.0076 59.9566 18.6204 59.9566 16.187C59.9566 13.7442 58.7196 11.4227 56.3797 9.47352C55.7393 8.93991 54.5265 8.83126 53.6718 9.23126C52.817 9.63095 52.6429 10.3877 53.2836 10.9213C55.1179 12.4493 56.0877 14.2704 56.0877 16.187C56.0877 18.1029 55.2564 19.9928 53.281 21.4526C51.8013 22.5464 54.4664 24.3438 56.4021 22.8798Z" fill="url(#paint2_linear)"/>
<path d="M27.5771 22.8622C29.0965 24.237 32.1813 22.6703 30.7191 21.4526C28.8829 19.9237 27.9126 18.1029 27.9126 16.1871C27.9126 14.2703 28.8824 12.4495 30.7168 10.9214C31.3574 10.388 31.1836 9.63111 30.3286 9.23143C29.4738 8.8316 28.2614 8.94009 27.6207 9.47369C25.2805 11.4227 24.0438 13.7441 24.0438 16.1871C24.0436 18.6131 25.2653 20.9201 27.5771 22.8622Z" fill="url(#paint3_linear)"/>
<path d="M64.0525 16.1871C64.0525 19.1872 62.5334 22.0377 59.6599 24.4305C59.0192 24.9639 59.1925 25.7206 60.0475 26.1205C61.0034 26.509 61.9061 26.4284 62.7554 25.8785C66.1352 23.0647 67.9214 19.7134 67.9214 16.1871C67.9214 12.6608 66.135 9.30946 62.7554 6.4956C62.1153 5.96216 60.902 5.85367 60.0475 6.25367C59.1928 6.65351 59.0192 7.41021 59.6599 7.94366C62.5334 10.3364 64.0525 13.187 64.0525 16.1871Z" fill="url(#paint4_linear)"/>
<path d="M21.2447 25.8785C22.0941 26.4282 22.9968 26.5088 23.9529 26.1206C24.8077 25.7208 24.9815 24.9639 24.3406 24.4305C21.4668 22.0375 19.9479 19.187 19.9479 16.187C19.9479 13.1871 21.4668 10.3366 24.3406 7.94364C24.9813 7.4102 24.8077 6.65334 23.9529 6.2535C23.0979 5.85398 21.8857 5.96183 21.2447 6.49559C17.8652 9.3096 16.0791 12.6609 16.0791 16.187C16.0791 19.7132 17.8652 23.0645 21.2447 25.8785Z" fill="url(#paint5_linear)"/>
<path d="M72.1205 16.187C72.1205 20.2848 70.0457 24.1784 66.1204 27.447C65.48 27.9805 65.6533 28.7374 66.5083 29.1372C67.4642 29.5255 68.3669 29.4448 69.2165 28.8951C73.6474 25.2052 75.9893 20.8108 75.9893 16.187C75.9893 11.5633 73.6474 7.16884 69.2165 3.47898C68.5758 2.94554 67.3631 2.83688 66.5083 3.23689C65.6536 3.63673 65.48 4.3936 66.1204 4.92705C70.0457 8.19581 72.1205 12.0893 72.1205 16.187Z" fill="url(#paint6_linear)"/>
<path d="M14.7839 28.8951C15.6332 29.4448 16.5359 29.5254 17.492 29.1372C18.347 28.7374 18.5206 27.9806 17.8799 27.447C13.9549 24.1783 11.8802 20.2846 11.8802 16.187C11.8802 12.0894 13.9546 8.19563 17.8799 4.92703C18.5206 4.39342 18.347 3.63671 17.492 3.23687C16.637 2.83702 15.4248 2.94536 14.7839 3.47896C10.3533 7.16882 8.01135 11.5632 8.01135 16.187C8.01135 20.8108 10.3533 25.2054 14.7839 28.8951Z" fill="url(#paint7_linear)"/>
<path d="M11.0772 32.1329C11.9477 31.7464 12.1058 30.9764 11.4651 30.4429C6.4955 26.3038 3.86883 21.3744 3.86883 16.1872C3.86883 11.0002 6.49473 6.07057 11.4628 1.9313C12.1032 1.3977 11.9294 0.64099 11.0741 0.241309C10.2189 -0.158372 9.00663 -0.0498806 8.36621 0.483886C2.89311 5.04409 0 10.4743 0 16.1874C0 21.9006 2.89388 27.331 8.36905 31.8908C8.74923 32.2073 9.88873 32.6606 11.0772 32.1329Z" fill="url(#paint8_linear)"/>
<path d="M80.1312 16.187C80.1312 21.3743 77.5042 26.3038 72.5349 30.4428C71.8944 30.9762 72.0678 31.7329 72.923 32.1327C73.8789 32.5212 74.7816 32.4404 75.631 31.8905C81.1061 27.3308 84 21.9004 84 16.187C84 10.4741 81.1069 5.04389 75.6338 0.483526C74.9934 -0.0500803 73.7809 -0.158572 72.9259 0.240948C72.0709 0.64063 71.8968 1.39734 72.5372 1.93094C77.5055 6.07054 80.1312 11.0002 80.1312 16.187Z" fill="url(#paint9_linear)"/>
<defs>
<linearGradient id="paint0_linear" x1="5.63406" y1="-101.302" x2="80.7552" y2="-101.316" gradientUnits="userSpaceOnUse">
<stop stop-color="#BF0105"/>
<stop offset="1" stop-color="#0535A3"/>
</linearGradient>
<linearGradient id="paint1_linear" x1="27.8159" y1="-104.858" x2="63.3391" y2="-104.861" gradientUnits="userSpaceOnUse">
<stop stop-color="#BF0105"/>
<stop offset="1" stop-color="#0535A3"/>
</linearGradient>
<linearGradient id="paint2_linear" x1="52.6022" y1="-27.1114" x2="60.4557" y2="-27.1119" gradientUnits="userSpaceOnUse">
<stop stop-color="#BF0105"/>
<stop offset="1" stop-color="#0535A3"/>
</linearGradient>
<linearGradient id="paint3_linear" x1="23.7961" y1="-27.0281" x2="31.5991" y2="-27.0287" gradientUnits="userSpaceOnUse">
<stop stop-color="#BF0105"/>
<stop offset="1" stop-color="#0535A3"/>
</linearGradient>
<linearGradient id="paint4_linear" x1="58.9697" y1="-44.8618" x2="68.5288" y2="-44.8624" gradientUnits="userSpaceOnUse">
<stop stop-color="#BF0105"/>
<stop offset="1" stop-color="#0535A3"/>
</linearGradient>
<linearGradient id="paint5_linear" x1="15.7756" y1="-44.8615" x2="25.3348" y2="-44.8621" gradientUnits="userSpaceOnUse">
<stop stop-color="#BF0105"/>
<stop offset="1" stop-color="#0535A3"/>
</linearGradient>
<linearGradient id="paint6_linear" x1="65.3741" y1="-62.9617" x2="76.7097" y2="-62.9623" gradientUnits="userSpaceOnUse">
<stop stop-color="#BF0105"/>
<stop offset="1" stop-color="#0535A3"/>
</linearGradient>
<linearGradient id="paint7_linear" x1="7.65152" y1="-62.9617" x2="18.9869" y2="-62.9623" gradientUnits="userSpaceOnUse">
<stop stop-color="#BF0105"/>
<stop offset="1" stop-color="#0535A3"/>
</linearGradient>
<linearGradient id="paint8_linear" x1="-0.41601" y1="-80.9373" x2="12.6892" y2="-80.938" gradientUnits="userSpaceOnUse">
<stop stop-color="#BF0105"/>
<stop offset="1" stop-color="#0535A3"/>
</linearGradient>
<linearGradient id="paint9_linear" x1="71.7326" y1="-80.9354" x2="84.8325" y2="-80.9361" gradientUnits="userSpaceOnUse">
<stop stop-color="#BF0105"/>
<stop offset="1" stop-color="#0535A3"/>
</linearGradient>
</defs>
</svg>
