<svg width="84" height="83" viewBox="0 0 84 83" fill="none" xmlns="http://www.w3.org/2000/svg">
<path d="M71.6984 12.0688C63.7657 4.28743 53.2185 0.00214878 41.9999 0.00214878C26.1747 -0.163932 10.8393 9.31187 4.11289 23.399C3.81889 23.9999 4.07729 24.7209 4.6899 25.0093C5.30267 25.298 6.03767 25.0442 6.3315 24.4433C7.15739 22.7551 8.10222 21.1424 9.15271 19.6128C12.2902 20.5853 15.3564 21.5942 18.2898 22.6186C18.5126 24.114 19.2035 25.4617 20.2108 26.5154C19.3288 30.7185 18.6873 35.138 18.345 39.5588C16.596 40.4236 15.244 41.9497 14.6324 43.8011C11.0706 45.217 7.30587 46.7682 3.17117 48.5238C2.70704 46.1513 2.46111 43.7037 2.46111 41.2004C2.46111 37.2254 3.07142 33.3061 4.27531 29.5513C4.47908 28.9153 4.1188 28.2377 3.47059 28.0377C2.82205 27.8378 2.13151 28.1912 1.92758 28.8271C0.648554 32.8166 1.63421e-05 36.9795 1.63421e-05 41.2004C-0.0204914 64.3158 19.2632 82.4629 41.9999 82.3989C65.5652 82.419 84.0651 63.5033 83.9998 41.2004C84 30.1959 79.6312 19.8501 71.6984 12.0688ZM76.408 60.289C72.7371 52.9523 66.7848 46.161 58.674 40.0639C59.2491 39.4693 59.7222 38.7797 60.0668 38.0212C64.5165 41.3535 68.3662 44.9038 71.5177 48.5848C73.9737 51.4535 76.0851 54.5009 77.8011 57.6504C77.3701 58.549 76.9056 59.4293 76.408 60.289ZM49.9312 55.8841C49.2574 55.4549 48.5099 55.13 47.7126 54.934C49.3596 50.6872 50.5042 46.3472 51.1234 41.9996C51.6509 42.1593 52.6193 42.3532 53.5133 42.3223C52.9086 46.7001 51.6353 51.5116 49.9312 55.8841ZM32.5544 78.8635C35.8714 75.1261 38.7817 71.3247 41.2267 67.532C41.8519 68.0415 42.5641 68.4511 43.3377 68.7376C41.0343 72.3275 38.3376 75.9149 35.3027 79.4258C34.3753 79.2699 33.4588 79.0819 32.5544 78.8635ZM38.5548 61.9606C38.5548 63.2855 38.9211 64.5273 39.557 65.5968C36.9143 69.7883 33.6784 74.002 29.9302 78.1345C29.6661 78.0513 29.4027 77.966 29.1409 77.8775C27.0043 68.988 25.7632 60.368 25.4505 52.2381C27.5739 50.9851 29.0041 48.7143 29.0367 46.119C30.9605 45.4347 32.8587 44.7823 34.6852 44.1801C35.3293 43.9677 35.676 43.2832 35.4596 42.6514C35.243 42.0196 34.5454 41.6792 33.9012 41.8918C32.1974 42.4536 30.4321 43.0587 28.6425 43.6918C28.3687 42.9065 27.9613 42.1818 27.4465 41.5435C34.0588 39.1922 40.1442 37.3046 45.9735 35.7957C46.056 36.6232 46.2821 37.4097 46.6253 38.1323C44.2663 38.7424 41.8414 39.4213 39.3997 40.1565C38.75 40.352 38.385 41.0273 38.5843 41.6644C38.7467 42.1837 39.2338 42.5177 39.7601 42.5177C39.8797 42.5177 40.0013 42.5004 40.1216 42.4642C42.8401 41.6459 45.5361 40.8984 48.1408 40.2395C48.349 40.4408 48.5698 40.6294 48.8011 40.8057C48.2116 45.4947 46.9812 50.1857 45.1414 54.7615C41.4436 55.1524 38.5548 58.2313 38.5548 61.9606ZM23.5554 75.4973C21.9115 67.8748 20.9166 60.3819 20.5965 53.1947C21.0216 53.2626 22.0706 53.3248 23.0255 53.1435C23.3707 60.6944 24.493 68.6431 26.3674 76.8218C25.4098 76.4159 24.4722 75.9735 23.5554 75.4973ZM20.672 21.5668C20.672 18.9047 22.88 16.7389 25.5939 16.7389C28.3078 16.7389 30.5157 18.9047 30.5157 21.5668C30.5157 24.2289 28.3078 26.3947 25.5939 26.3947C22.88 26.3947 20.672 24.2289 20.672 21.5668ZM33.671 3.29867C31.6986 7.09311 29.9852 10.9936 28.5591 14.9369C27.8231 14.6189 27.0247 14.4161 26.1871 14.3505C27.4296 10.8708 28.8843 7.43621 30.5184 4.10976C31.5552 3.79788 32.6067 3.52639 33.671 3.29867ZM40.6805 2.43865C45.23 11.183 47.9875 19.7724 48.8876 27.9994C44.0668 25.3427 38.6873 22.7818 32.8748 20.3748C32.6061 18.7904 31.8113 17.379 30.6729 16.3185C32.3034 11.7126 34.3377 7.16054 36.7284 2.76904C38.0329 2.59443 39.3515 2.48291 40.6805 2.43865ZM58.2422 35.085C58.2422 37.7472 56.0343 39.913 53.3204 39.913C50.6065 39.913 48.3985 37.7472 48.3985 35.085C48.3985 32.4229 50.6065 30.2571 53.3204 30.2571C56.0343 30.2571 58.2422 32.4229 58.2422 35.085ZM32.8344 22.9807C38.2862 25.2721 43.3334 27.698 47.8684 30.2074C47.3059 30.8118 46.846 31.5098 46.5164 32.2745C42.1174 29.8458 37.2241 27.4913 31.9406 25.2608C32.3619 24.5667 32.6687 23.7986 32.8344 22.9807ZM27.2724 28.6177C28.3826 28.3634 29.3977 27.864 30.2534 27.1791C35.2819 29.277 39.957 31.4869 44.1867 33.766C38.3764 35.3103 32.3045 37.2269 25.7169 39.5935C26.0272 35.8762 26.549 32.1912 27.2724 28.6177ZM60.7017 35.1427C60.7094 34.5256 60.599 33.6249 60.3071 32.7499C66.8688 31.6709 73.3696 31.0473 80.1066 30.8484C80.3298 31.6377 80.5288 32.4369 80.7014 33.2456C73.9041 33.4254 67.3375 34.0493 60.7017 35.1427ZM79.3437 28.4568C72.4461 28.6903 65.7824 29.3662 59.0412 30.5139C58.3115 29.6367 57.3762 28.931 56.3086 28.4654C56.0848 25.9269 55.7073 23.3523 55.1808 20.8038C54.5832 17.9154 53.775 14.9556 52.778 12.0063C52.5642 11.3736 51.8678 11.0311 51.2228 11.2405C50.5777 11.4503 50.2283 12.1333 50.4421 12.7659C51.4081 15.6238 52.191 18.4896 52.769 21.2836C53.2206 23.47 53.5586 25.6757 53.7801 27.8586C53.1394 27.8212 52.3267 27.8602 51.3741 28.1003C50.5189 19.8173 47.8528 11.1994 43.4386 2.44428C44.3901 2.47792 45.3332 2.54358 46.2667 2.64239C47.0407 4.23738 47.7683 5.8438 48.4279 7.42752C48.6228 7.89519 49.0823 8.17843 49.5675 8.17843C49.7223 8.17843 49.88 8.14946 50.0322 8.08847C50.6614 7.83645 50.9631 7.13173 50.706 6.51472C50.2293 5.36985 49.7163 4.21356 49.1791 3.0584C63.2427 5.5995 74.7224 15.464 79.3437 28.4568ZM27.2619 5.24288C25.8465 8.30911 24.5836 11.4523 23.4916 14.6258C22.5873 14.8898 21.7558 15.3196 21.0325 15.879C18.8393 15.113 16.5662 14.3529 14.2467 13.61C17.9829 10.0132 22.4158 7.16569 27.2619 5.24288ZM12.3657 15.5494C14.7223 16.2937 17.0366 17.0573 19.2731 17.8287C18.8498 18.5147 18.5395 19.2747 18.3673 20.084C15.8793 19.2238 13.3014 18.3762 10.6713 17.5528C11.214 16.865 11.7793 16.1972 12.3657 15.5494ZM22.3966 28.0939C23.1193 28.4358 23.9076 28.6639 24.737 28.7585C24.085 32.0932 23.6026 35.5168 23.2998 38.9698C22.5553 38.8326 21.9558 38.7287 20.8745 38.8277C20.9975 36.4892 21.7315 31.4506 22.3966 28.0939ZM21.6564 41.2004C24.3703 41.2004 26.5782 43.3662 26.5782 46.0284C26.5782 48.6905 24.3703 50.8563 21.6564 50.8563C18.9425 50.8563 16.7345 48.6905 16.7345 46.0284C16.7345 43.3662 18.9425 41.2004 21.6564 41.2004ZM14.2943 46.5424C14.3545 47.3802 14.5599 48.1791 14.8872 48.9148C11.6317 50.224 8.18688 51.6524 4.41903 53.2556C4.16227 52.4875 3.92734 51.7101 3.71914 50.9218C7.51701 49.3061 10.9992 47.864 14.2943 46.5424ZM5.25886 55.5294C9.23868 53.835 12.8549 52.3369 16.266 50.9695C16.797 51.5266 17.4159 52.002 18.1016 52.3733C18.3566 59.3059 19.2306 66.5211 20.704 73.8661C13.7886 69.5129 8.34044 63.1053 5.25886 55.5294ZM42.0001 79.9849C40.714 79.9849 39.4428 79.9223 38.1879 79.8039C41.1151 76.3162 43.716 72.7596 45.9405 69.2023C47.4781 69.2017 48.9522 68.7418 50.203 67.8719C50.7576 67.4863 50.8883 66.733 50.4954 66.1892C50.1023 65.6458 49.3346 65.517 48.78 65.9026C47.9465 66.4821 46.9636 66.7884 45.9376 66.7884C43.2237 66.7884 41.0157 64.6226 41.0157 61.9604C41.0157 59.2983 43.2237 57.1325 45.9376 57.1325C48.6067 57.1325 50.8143 59.2613 50.8588 61.8779C50.8699 62.5375 51.4186 63.0647 52.0886 63.0647C52.0956 63.0647 52.1027 63.0647 52.1096 63.0646C52.7891 63.0535 53.3307 62.5042 53.3194 61.8376C53.2928 60.28 52.754 58.8387 51.8653 57.6653C53.95 52.5059 55.3764 47.208 56.064 41.8062C56.2517 41.7322 56.4356 41.6512 56.6152 41.5629C65.2296 47.924 71.3649 55.045 74.8629 62.7426C67.7616 73.132 55.6819 79.9849 42.0001 79.9849ZM79.0148 54.8339C77.4099 52.1331 75.5295 49.5172 73.4021 47.0323C70.4859 43.6262 66.9999 40.3343 63.0189 37.2204C69.0128 36.3142 74.9743 35.7988 81.1325 35.6507C81.3986 37.4639 81.5391 39.3164 81.5391 41.2008C81.5391 45.9962 80.6446 50.5903 79.0148 54.8339Z" fill="url(#paint0_linear)"/>
<defs>
<linearGradient id="paint0_linear" x1="-2.94737" y1="-205.999" x2="89.9006" y2="-206.013" gradientUnits="userSpaceOnUse">
<stop stop-color="#BF0105"/>
<stop offset="1" stop-color="#0535A3"/>
</linearGradient>
</defs>
</svg>
