<svg width="48" height="55" viewBox="0 0 48 55" fill="none" xmlns="http://www.w3.org/2000/svg">
<path d="M24 0C10.7664 0 0 8.6741 0 19.3359C0 22.9382 1.23853 26.4537 3.58253 29.5036L22.6339 54.2383C22.9988 54.7121 23.6417 55 24.3332 55C24.3385 55 24.3437 55 24.3491 55C25.0465 54.9956 25.6908 54.6988 26.0491 54.2167L44.6148 29.2424C46.8295 26.2569 48 22.8313 48 19.3359C48 8.6741 37.2336 0 24 0ZM41.1821 27.5879L24.3029 50.2934L6.98227 27.8057C5.0312 25.2671 3.97333 22.3384 3.97333 19.3359C3.97333 10.4511 12.972 3.20117 24 3.20117C35.028 3.20117 44.0133 10.4511 44.0133 19.3359C44.0133 22.2493 43.0252 25.1032 41.1821 27.5879Z" fill="url(#paint0_linear)"/>
<path d="M24 9.66797C17.3832 9.66797 12 14.005 12 19.3359C12 24.6328 17.2956 29.0039 24 29.0039C30.7871 29.0039 36 24.5746 36 19.3359C36 14.005 30.6168 9.66797 24 9.66797ZM24 25.8027C19.5657 25.8027 15.9733 22.8988 15.9733 19.3359C15.9733 15.782 19.5888 12.8691 24 12.8691C28.4112 12.8691 32.0133 15.782 32.0133 19.3359C32.0133 22.8468 28.5045 25.8027 24 25.8027Z" fill="url(#paint1_linear)"/>
<defs>
<linearGradient id="paint0_linear" x1="-1.68421" y1="-137.501" x2="51.3718" y2="-137.508" gradientUnits="userSpaceOnUse">
<stop stop-color="#BF0105"/>
<stop offset="1" stop-color="#0535A3"/>
</linearGradient>
<linearGradient id="paint1_linear" x1="11.1579" y1="-38.6723" x2="37.6859" y2="-38.6769" gradientUnits="userSpaceOnUse">
<stop stop-color="#BF0105"/>
<stop offset="1" stop-color="#0535A3"/>
</linearGradient>
</defs>
</svg>
