<svg width="48" height="48" viewBox="0 0 48 48" fill="none" xmlns="http://www.w3.org/2000/svg">
<path d="M34.4976 48C32.9481 48 31.4118 47.7261 29.9095 47.1803C23.2912 44.7761 17.148 40.8603 12.1438 35.8562C7.13961 30.8521 3.22381 24.7089 0.819679 18.0906C0.0471136 15.9637 -0.180878 13.7681 0.142266 11.5647C0.444974 9.5008 1.24445 7.49716 2.45434 5.77036C3.66958 4.03596 5.2897 2.59339 7.13951 1.59865C9.11213 0.537915 11.2652 0 13.5391 0C14.2463 0 14.8576 0.494136 15.0058 1.18561L17.3601 12.1726C17.4667 12.6701 17.3138 13.1877 16.9541 13.5475L12.9312 17.5704C16.7262 25.1156 22.8843 31.2736 30.4295 35.0687L34.4524 31.0457C34.8122 30.686 35.33 30.5333 35.8274 30.6397L46.8144 32.9941C47.506 33.1423 48 33.7535 48 34.4607C48 36.7346 47.4621 38.8878 46.4012 40.8604C45.4065 42.7102 43.9639 44.3303 42.2295 45.5455C40.5028 46.7554 38.4992 47.5549 36.4351 47.8576C35.7884 47.9526 35.1417 47.9999 34.4976 48ZM12.3407 3.0655C9.34125 3.39661 6.67903 4.96873 4.91116 7.49191C2.92317 10.3291 2.45959 13.8188 3.6393 17.0664C8.26138 29.7902 18.2099 39.7386 30.9337 44.3607C34.1812 45.5404 37.6709 45.0769 40.5082 43.0888C43.0314 41.321 44.6036 38.6588 44.9347 35.6593L35.9968 33.7441L31.7954 37.9454C31.3484 38.3925 30.6691 38.5113 30.097 38.2424C21.1733 34.0501 13.9499 26.8268 9.75757 17.9031C9.4888 17.3309 9.60749 16.6517 10.0546 16.2047L14.2559 12.0034L12.3407 3.0655Z" fill="url(#paint0_linear)"/>
<defs>
<linearGradient id="paint0_linear" x1="-1.68421" y1="-120.001" x2="51.3718" y2="-120.008" gradientUnits="userSpaceOnUse">
<stop stop-color="#BF0105"/>
<stop offset="1" stop-color="#0535A3"/>
</linearGradient>
</defs>
</svg>
