<svg width="48" height="48" viewBox="0 0 48 48" fill="none" xmlns="http://www.w3.org/2000/svg">
<path fill-rule="evenodd" clip-rule="evenodd" d="M41.0065 6.97559C36.4943 2.47969 30.4934 0.00263672 24.1004 0C10.927 0 0.20577 10.6696 0.200471 23.7835C0.198705 27.9756 1.29909 32.0678 3.39064 35.6748L0 48L12.6697 44.6924C16.1607 46.5876 20.091 47.5863 24.0907 47.5875H24.1007C37.2726 47.5875 47.995 36.917 48 23.8025C48.0026 17.4469 45.519 11.4712 41.0065 6.97559ZM24.1004 43.5706H24.0921C20.5278 43.5691 17.0321 42.6158 13.9817 40.8149L13.2567 40.3863L5.7383 42.3492L7.74507 35.054L7.27259 34.3061C5.28407 31.1584 4.23403 27.5203 4.2358 23.785C4.23992 12.8851 13.1513 4.01719 24.1083 4.01719C29.4142 4.01895 34.4018 6.07793 38.1522 9.81475C41.9026 13.5516 43.9667 18.5186 43.965 23.8011C43.9603 34.7019 35.0495 43.5706 24.1004 43.5706ZM34.9965 28.7643C34.3995 28.4666 31.4633 27.0293 30.9158 26.8307C30.3689 26.6323 29.9703 26.5336 29.5726 27.1283C29.1743 27.723 28.03 29.0619 27.6815 29.4583C27.3329 29.855 26.985 29.9048 26.3877 29.6071C25.7904 29.3098 23.8664 28.6819 21.5852 26.6572C19.8101 25.0813 18.6117 23.1352 18.2632 22.5404C17.9152 21.9451 18.2602 21.6545 18.5252 21.3275C19.1716 20.5286 19.819 19.691 20.018 19.2946C20.2172 18.898 20.1175 18.5508 19.9679 18.2534C19.819 17.9561 18.6247 15.0308 18.1272 13.8404C17.642 12.682 17.1501 12.8385 16.7833 12.8203C16.4354 12.803 16.0371 12.7995 15.6388 12.7995C15.2408 12.7995 14.5938 12.948 14.0462 13.5434C13.499 14.1384 11.9564 15.576 11.9564 18.5013C11.9564 21.4266 14.0963 24.2525 14.3948 24.6492C14.6933 25.0459 18.6058 31.0488 24.5961 33.6229C26.0209 34.2357 27.1331 34.6011 28.0006 34.875C29.4313 35.3273 30.7327 35.2635 31.7618 35.1105C32.9093 34.9397 35.2947 33.6727 35.7928 32.2846C36.2903 30.8962 36.2903 29.7064 36.1407 29.4583C35.9918 29.2105 35.5935 29.0619 34.9965 28.7643Z" fill="url(#paint0_linear)"/>
<defs>
<linearGradient id="paint0_linear" x1="-1.68421" y1="-120.001" x2="51.3718" y2="-120.008" gradientUnits="userSpaceOnUse">
<stop stop-color="#BF0105"/>
<stop offset="1" stop-color="#0535A3"/>
</linearGradient>
</defs>
</svg>
